<svg width="120" height="120" viewBox="0 0 120 120" fill="none" xmlns="http://www.w3.org/2000/svg">
<rect width="120" height="120" rx="8" fill="#F5F5F5"/>
<circle cx="60" cy="60" r="50" fill="url(#paint0_linear_2_1326)"/>
<path fill-rule="evenodd" clip-rule="evenodd" d="M43.9005 59.1039C42.652 56.0591 41.6429 53.0873 40.8855 50.2667C39.4202 50.5853 38.0442 50.9497 36.7711 51.3549C33.7281 52.3234 31.354 53.4997 29.7515 54.7776C28.1476 56.0567 27.4572 57.3153 27.3998 58.4774C27.3509 59.4677 27.7491 60.5629 28.7756 61.7518C29.8094 62.949 31.4149 64.1575 33.5678 65.2991C34.3243 65.7002 34.6086 66.6318 34.2029 67.3798C33.7972 68.1277 32.8551 68.4089 32.0986 68.0078C29.7407 66.7575 27.7797 65.332 26.4114 63.7475C25.0359 62.1545 24.1965 60.3201 24.2949 58.3275C24.4109 55.9775 25.7971 53.9825 27.7999 52.3852C29.8043 50.7868 32.5672 49.4639 35.8185 48.4291C37.1728 47.9981 38.626 47.6126 40.1644 47.2765C39.8545 45.8188 39.6191 44.4135 39.4601 43.0727C39.0623 39.7185 39.1323 36.684 39.7709 34.2175C40.409 31.7528 41.6691 29.6776 43.7832 28.5976C45.6486 27.6446 47.7757 27.6764 49.8953 28.3236C52.0063 28.9682 54.2257 30.2527 56.4476 31.9956C57.1201 32.5232 57.2327 33.4898 56.6992 34.1547C56.1656 34.8196 55.188 34.931 54.5155 34.4035C52.473 32.8012 50.5956 31.7543 48.9781 31.2604C47.3692 30.7691 46.136 30.8552 45.2101 31.3282C44.1647 31.8623 43.2934 33.0059 42.7824 34.9797C42.2719 36.9517 42.1752 39.5755 42.5475 42.7147C42.6971 43.9755 42.9206 45.3058 43.217 46.6932C46.1662 46.2056 49.3622 45.8853 52.7257 45.7546C56.6266 40.869 60.722 36.8533 64.584 34.042C67.3345 32.0397 70.0357 30.5976 72.5193 29.925C75.0011 29.2529 77.4484 29.3081 79.4441 30.5895C81.2203 31.73 82.2475 33.5945 82.723 35.7594C83.1968 37.916 83.1549 40.4888 82.7055 43.2935C82.5712 44.1318 81.775 44.7037 80.9272 44.5709C80.0793 44.4381 79.5009 43.6508 79.6352 42.8126C80.0489 40.2307 80.0494 38.0692 79.6853 36.4117C79.323 34.7626 78.6323 33.7331 77.7511 33.1673C76.7642 32.5336 75.3279 32.3512 73.3405 32.8894C71.3548 33.4271 69.0013 34.6431 66.427 36.5171C63.3405 38.764 60.0357 41.8841 56.7902 45.6898C58.0779 45.6982 59.3842 45.7337 60.705 45.7974C70.2739 46.2592 78.9351 48.1223 85.214 50.813C88.3479 52.1559 90.9674 53.7386 92.8048 55.5224C94.6408 57.3049 95.8239 59.4239 95.7079 61.7739C95.6107 63.7411 94.6189 65.4675 93.1251 66.9091C91.6397 68.3427 89.5923 69.5648 87.1748 70.579C86.3845 70.9105 85.4721 70.5459 85.1368 69.7646C84.8015 68.9832 85.1703 68.0811 85.9605 67.7496C88.1628 66.8257 89.8366 65.7878 90.9537 64.7097C92.0626 63.6395 92.5547 62.6023 92.603 61.6241C92.6603 60.462 92.0971 59.143 90.6268 57.7155C89.1578 56.2893 86.9109 54.89 83.9778 53.6331C78.1226 51.124 69.8473 49.3159 60.5535 48.8674C58.4112 48.764 56.3157 48.7377 54.2848 48.7822C52.9876 50.4658 51.712 52.2544 50.4766 54.1353C49.3454 55.8576 48.2994 57.5788 47.3418 59.2822C48.1721 61.2094 49.1031 63.169 50.1329 65.1395C54.4043 73.313 59.5037 80.0059 64.2433 84.2309C66.6175 86.3473 68.8379 87.7874 70.7601 88.5166C72.6839 89.2465 74.1314 89.2054 75.1768 88.6713C76.1839 88.1569 77.028 87.079 77.5465 85.2349C78.0657 83.3885 78.2071 80.9301 77.9145 77.9743C77.3304 72.0732 75.0506 64.5216 71.179 56.6802C70.8024 55.9175 71.1224 54.9974 71.8938 54.625C72.6652 54.2527 73.5959 54.5691 73.9725 55.3318C77.9597 63.4072 80.379 71.317 81.0083 77.675C81.3225 80.8488 81.1992 83.7194 80.5415 86.0582C79.8833 88.3991 78.6385 90.3625 76.6038 91.402C74.4897 92.482 72.0489 92.2976 69.6465 91.3862C67.2423 90.4742 64.6985 88.775 62.1617 86.5137C57.0792 81.9829 51.7689 74.9659 47.3712 66.5505C46.7082 65.2819 46.0835 64.015 45.4978 62.7551C43.1646 67.4244 41.538 71.8643 40.6858 75.7087C40.0014 78.7961 39.8352 81.4165 40.146 83.4288C40.4571 85.4428 41.2098 86.666 42.1966 87.2997C43.1249 87.8957 44.4464 88.0922 46.2562 87.6664C48.0705 87.2396 50.2249 86.2159 52.6016 84.5975C53.3085 84.1161 54.2763 84.2925 54.7633 84.9915C55.2502 85.6905 55.0718 86.6474 54.3648 87.1288C51.804 88.8727 49.2931 90.1114 46.9758 90.6565C44.654 91.2027 42.3777 91.0808 40.5036 89.8774C38.5079 88.596 37.4615 86.4078 37.073 83.8928C36.6842 81.3759 36.918 78.3494 37.6493 75.0506C38.7053 70.2867 40.8379 64.7816 43.9005 59.1039ZM45.8751 55.6366C45.1107 53.59 44.4673 51.5983 43.9471 49.6891C45.94 49.3669 48.0608 49.1226 50.2825 48.9657C49.4635 50.0949 48.6577 51.2612 47.8695 52.4613C47.1746 53.5193 46.5095 54.5789 45.8751 55.6366Z" fill="white"/>
<path d="M60.1445 64.3487C62.5971 64.3487 64.5853 62.3828 64.5853 59.9578C64.5853 57.5328 62.5971 55.567 60.1445 55.567C57.6919 55.567 55.7036 57.5328 55.7036 59.9578C55.7036 62.3828 57.6919 64.3487 60.1445 64.3487Z" fill="white"/>
<defs>
<linearGradient id="paint0_linear_2_1326" x1="60" y1="10" x2="60" y2="110" gradientUnits="userSpaceOnUse">
<stop stop-color="#B2E299"/>
<stop offset="1" stop-color="#03A171"/>
</linearGradient>
</defs>
</svg>
