<svg width="67" height="100" viewBox="0 0 67 100" fill="none" xmlns="http://www.w3.org/2000/svg">
<path fill-rule="evenodd" clip-rule="evenodd" d="M33.3328 50C33.3328 40.7953 40.7947 33.3334 49.9994 33.3334C59.2042 33.3334 66.6661 40.7953 66.6661 50C66.6661 59.2048 59.2042 66.6667 49.9994 66.6667C40.7947 66.6667 33.3328 59.2048 33.3328 50Z" fill="#1ABCFE"/>
<path fill-rule="evenodd" clip-rule="evenodd" d="M0 83.3334C0 74.1287 7.46193 66.6667 16.6667 66.6667H33.3334V83.3334C33.3334 92.5382 25.8714 100 16.6667 100C7.46193 100 0 92.5382 0 83.3334Z" fill="#0ACF83"/>
<path fill-rule="evenodd" clip-rule="evenodd" d="M33.3328 0V33.3334H49.9994C59.2042 33.3334 66.6661 25.8714 66.6661 16.6667C66.6661 7.46193 59.2042 0 49.9994 0H33.3328Z" fill="#FF7262"/>
<path fill-rule="evenodd" clip-rule="evenodd" d="M0 16.6667C0 25.8714 7.46193 33.3334 16.6667 33.3334H33.3334V0H16.6667C7.46193 0 0 7.46193 0 16.6667Z" fill="#F24E1E"/>
<path fill-rule="evenodd" clip-rule="evenodd" d="M0 50C0 59.2048 7.46193 66.6667 16.6667 66.6667H33.3334V33.3334H16.6667C7.46193 33.3334 0 40.7953 0 50Z" fill="#A259FF"/>
</svg>
