<svg width="136" height="135" viewBox="0 0 136 135" fill="none" xmlns="http://www.w3.org/2000/svg">
<g filter="url(#filter0_d_2_53)">
<rect x="16.543" y="16.0001" width="102.996" height="102.996" rx="51.4981" fill="#333F44"/>
<path fill-rule="evenodd" clip-rule="evenodd" d="M68.0413 67.4982C68.0413 61.8098 72.6526 57.1985 78.3409 57.1985C84.0292 57.1985 88.6405 61.8098 88.6405 67.4982C88.6405 73.1865 84.0292 77.7978 78.3409 77.7978C72.6526 77.7978 68.0413 73.1865 68.0413 67.4982Z" fill="#1ABCFE"/>
<path fill-rule="evenodd" clip-rule="evenodd" d="M47.4419 88.0974C47.4419 82.4091 52.0532 77.7978 57.7415 77.7978H68.0411V88.0974C68.0411 93.7857 63.4298 98.397 57.7415 98.397C52.0532 98.397 47.4419 93.7857 47.4419 88.0974Z" fill="#0ACF83"/>
<path fill-rule="evenodd" clip-rule="evenodd" d="M68.0413 36.5993V57.1986H78.3409C84.0292 57.1986 88.6405 52.5873 88.6405 46.8989C88.6405 41.2106 84.0292 36.5993 78.3409 36.5993H68.0413Z" fill="#FF7262"/>
<path fill-rule="evenodd" clip-rule="evenodd" d="M47.4419 46.8989C47.4419 52.5873 52.0532 57.1986 57.7415 57.1986H68.0411V36.5993H57.7415C52.0532 36.5993 47.4419 41.2106 47.4419 46.8989Z" fill="#F24E1E"/>
<path fill-rule="evenodd" clip-rule="evenodd" d="M47.4419 67.4982C47.4419 73.1865 52.0532 77.7978 57.7415 77.7978H68.0411V57.1985H57.7415C52.0532 57.1985 47.4419 61.8098 47.4419 67.4982Z" fill="#A259FF"/>
</g>
<defs>
<filter id="filter0_d_2_53" x="0.542969" y="6.10352e-05" width="134.996" height="134.996" filterUnits="userSpaceOnUse" color-interpolation-filters="sRGB">
<feFlood flood-opacity="0" result="BackgroundImageFix"/>
<feColorMatrix in="SourceAlpha" type="matrix" values="0 0 0 0 0 0 0 0 0 0 0 0 0 0 0 0 0 0 127 0" result="hardAlpha"/>
<feOffset/>
<feGaussianBlur stdDeviation="8"/>
<feColorMatrix type="matrix" values="0 0 0 0 0 0 0 0 0 0 0 0 0 0 0 0 0 0 0.16 0"/>
<feBlend mode="normal" in2="BackgroundImageFix" result="effect1_dropShadow_2_53"/>
<feBlend mode="normal" in="SourceGraphic" in2="effect1_dropShadow_2_53" result="shape"/>
</filter>
</defs>
</svg>
