<svg width="136" height="136" viewBox="0 0 136 136" fill="none" xmlns="http://www.w3.org/2000/svg">
<g filter="url(#filter0_d_2_60)">
<rect x="16.8765" y="16.7378" width="102.996" height="102.996" rx="51.4981" fill="#333E44"/>
<path d="M68.375 37.337C51.3121 37.337 37.4758 51.5208 37.4758 69.0182C37.4758 83.0157 46.3294 94.8912 58.6065 99.0803C60.1508 99.3736 60.7177 98.3931 60.7177 97.5563C60.7177 96.8008 60.6891 94.3052 60.6758 91.6579C52.0796 93.5744 50.2657 87.92 50.2657 87.92C48.8601 84.2581 46.8349 83.2844 46.8349 83.2844C44.0314 81.3181 47.0462 81.3585 47.0462 81.3585C50.149 81.5819 51.7828 84.6232 51.7828 84.6232C54.5387 89.4666 59.0113 88.0663 60.7745 87.2568C61.0518 85.2092 61.8526 83.8116 62.7363 83.0205C55.8732 82.2194 48.6585 79.5028 48.6585 67.3635C48.6585 63.9046 49.8656 61.0785 51.8422 58.8598C51.5214 58.0619 50.4637 54.8396 52.1415 50.4758C52.1415 50.4758 54.7362 49.6243 60.641 53.7232C63.1057 53.0213 65.749 52.6692 68.375 52.6572C71.0009 52.6692 73.6463 53.0213 76.1156 53.7232C82.0132 49.6243 84.6043 50.4758 84.6043 50.4758C86.2862 54.8396 85.2281 58.0619 84.9072 58.8598C86.8884 61.0785 88.0873 63.9046 88.0873 67.3635C88.0873 79.5317 80.8588 82.211 73.9783 82.9953C75.0866 83.9784 76.0742 85.9064 76.0742 88.8622C76.0742 93.1012 76.0383 96.5128 76.0383 97.5563C76.0383 98.3994 76.5945 99.3872 78.1608 99.0761C90.4313 94.8823 99.2736 83.011 99.2736 69.0182C99.2736 51.5208 85.4394 37.337 68.375 37.337Z" fill="white"/>
</g>
<defs>
<filter id="filter0_d_2_60" x="0.876465" y="0.737793" width="134.996" height="134.996" filterUnits="userSpaceOnUse" color-interpolation-filters="sRGB">
<feFlood flood-opacity="0" result="BackgroundImageFix"/>
<feColorMatrix in="SourceAlpha" type="matrix" values="0 0 0 0 0 0 0 0 0 0 0 0 0 0 0 0 0 0 127 0" result="hardAlpha"/>
<feOffset/>
<feGaussianBlur stdDeviation="8"/>
<feColorMatrix type="matrix" values="0 0 0 0 0 0 0 0 0 0 0 0 0 0 0 0 0 0 0.16 0"/>
<feBlend mode="normal" in2="BackgroundImageFix" result="effect1_dropShadow_2_60"/>
<feBlend mode="normal" in="SourceGraphic" in2="effect1_dropShadow_2_60" result="shape"/>
</filter>
</defs>
</svg>
