<svg width="112" height="110" viewBox="0 0 112 110" fill="none" xmlns="http://www.w3.org/2000/svg">
<path d="M56.0005 -2.33337C25.0763 -2.33337 0 23.3728 0 55.0844C0 80.4531 16.0458 101.976 38.2965 109.568C41.0953 110.099 42.1228 108.322 42.1228 106.806C42.1228 105.437 42.0708 100.914 42.0467 96.1158C26.4673 99.5891 23.1799 89.3413 23.1799 89.3413C20.6325 82.7046 16.9621 80.9399 16.9621 80.9399C11.8811 77.3762 17.345 77.4494 17.345 77.4494C22.9685 77.8545 25.9295 83.3664 25.9295 83.3664C30.9241 92.1443 39.0301 89.6066 42.2257 88.1394C42.7283 84.4284 44.1796 81.8955 45.7811 80.4616C33.3427 79.0097 20.2671 74.0864 20.2671 52.0855C20.2671 45.8168 22.4547 40.6948 26.037 36.6738C25.4556 35.2276 23.5388 29.3877 26.5795 21.4788C26.5795 21.4788 31.2821 19.9356 41.9837 27.3644C46.4507 26.0922 51.2413 25.4542 56.0005 25.4323C60.7596 25.4542 65.554 26.0922 70.0293 27.3644C80.7179 19.9356 85.414 21.4788 85.414 21.4788C88.4622 29.3877 86.5444 35.2276 85.963 36.6738C89.5536 40.6948 91.7264 45.8168 91.7264 52.0855C91.7264 74.1387 78.6258 78.9945 66.1558 80.416C68.1644 82.1978 69.9542 85.6921 69.9542 91.0489C69.9542 98.7315 69.8893 104.915 69.8893 106.806C69.8893 108.334 70.8973 110.124 73.7359 109.56C95.9746 101.96 112 80.4445 112 55.0844C112 23.3728 86.9274 -2.33337 56.0005 -2.33337Z" fill="white"/>
<path d="M21.3754 79.7121C21.2523 79.9945 20.8154 80.0792 20.4174 79.8853C20.012 79.6998 19.7843 79.3148 19.9157 79.0314C20.036 78.7405 20.4738 78.6595 20.8783 78.8544C21.2847 79.0399 21.5161 79.4287 21.3754 79.7121Z" fill="#161514"/>
<path d="M23.6395 82.2802C23.3729 82.5316 22.8518 82.4149 22.4982 82.0176C22.1326 81.6212 22.0641 81.0912 22.3344 80.8361C22.6093 80.5847 23.1147 80.7024 23.4812 81.0987C23.8469 81.4998 23.9181 82.0261 23.6395 82.2802Z" fill="#161514"/>
<path d="M25.8435 85.5545C25.501 85.7965 24.941 85.5696 24.5948 85.064C24.2523 84.5585 24.2523 83.9522 24.6022 83.7093C24.9493 83.4664 25.501 83.6848 25.8518 84.1866C26.1934 84.7006 26.1934 85.3069 25.8435 85.5545Z" fill="#161514"/>
<path d="M28.8621 88.7178C28.5557 89.0614 27.9032 88.9692 27.4256 88.5003C26.9368 88.0419 26.8008 87.3913 27.1081 87.0477C27.4182 86.7031 28.0744 86.8001 28.5557 87.2652C29.0408 87.7227 29.1889 88.3779 28.8621 88.7178Z" fill="#161514"/>
<path d="M33.0276 90.5546C32.8924 90.9999 32.264 91.2023 31.6308 91.0131C30.9986 90.8182 30.5849 90.2966 30.7126 89.8466C30.8441 89.3985 31.4753 89.1876 32.1131 89.39C32.7443 89.584 33.159 90.1018 33.0276 90.5546Z" fill="#161514"/>
<path d="M37.6027 90.8954C37.6184 91.3642 37.0815 91.7531 36.4169 91.7615C35.7486 91.7766 35.2081 91.3972 35.2007 90.9359C35.2007 90.4624 35.7255 90.0773 36.3938 90.066C37.0584 90.0528 37.6027 90.4294 37.6027 90.8954Z" fill="#161514"/>
<path d="M41.8593 90.1582C41.9389 90.6157 41.477 91.0855 40.817 91.2107C40.1682 91.3312 39.5674 91.0488 39.4851 90.595C39.4045 90.1262 39.8747 89.6564 40.5227 89.535C41.1836 89.4182 41.775 89.6931 41.8593 90.1582Z" fill="#161514"/>
</svg>
