<svg width="110" height="35" viewBox="0 0 110 35" fill="none" xmlns="http://www.w3.org/2000/svg">
<path d="M46.8105 17.9488C46.8105 22.8069 42.7705 26.3868 37.8124 26.3868C32.8543 26.3868 28.8142 22.8069 28.8142 17.9488C28.8142 13.0564 32.8543 9.51074 37.8124 9.51074C42.7705 9.51074 46.8105 13.0564 46.8105 17.9488ZM42.8716 17.9488C42.8716 14.9129 40.53 12.8357 37.8124 12.8357C35.0947 12.8357 32.7532 14.9129 32.7532 17.9488C32.7532 20.9542 35.0947 23.0618 37.8124 23.0618C40.53 23.0618 42.8716 20.9504 42.8716 17.9488Z" fill="#EA4335"/>
<path d="M66.2224 17.9488C66.2224 22.8069 62.1823 26.3868 57.2242 26.3868C52.2661 26.3868 48.2261 22.8069 48.2261 17.9488C48.2261 13.0602 52.2661 9.51074 57.2242 9.51074C62.1823 9.51074 66.2224 13.0564 66.2224 17.9488ZM62.2834 17.9488C62.2834 14.9129 59.9419 12.8357 57.2242 12.8357C54.5066 12.8357 52.165 14.9129 52.165 17.9488C52.165 20.9542 54.5066 23.0618 57.2242 23.0618C59.9419 23.0618 62.2834 20.9504 62.2834 17.9488Z" fill="#FBBC05"/>
<path d="M84.8252 10.0205V25.1694C84.8252 31.401 80.9186 33.9461 76.3002 33.9461C71.9528 33.9461 69.3363 31.2107 68.3495 28.9738L71.7789 27.6308C72.3896 29.0042 73.8859 30.6249 76.2962 30.6249C79.2524 30.6249 81.0844 28.9091 81.0844 25.6792V24.4656H80.9469C80.0653 25.489 78.3668 26.383 76.2234 26.383C71.7385 26.383 67.6296 22.708 67.6296 17.9792C67.6296 13.2162 71.7385 9.51074 76.2234 9.51074C78.3627 9.51074 80.0613 10.4048 80.9469 11.3977H81.0844V10.0243H84.8252V10.0205ZM81.3635 17.9792C81.3635 15.008 79.2565 12.8357 76.5752 12.8357C73.8576 12.8357 71.5807 15.008 71.5807 17.9792C71.5807 20.92 73.8576 23.0618 76.5752 23.0618C79.2565 23.0618 81.3635 20.92 81.3635 17.9792Z" fill="#4285F4"/>
<path d="M90.9925 1.14136V25.8696H87.1506V1.14136H90.9925Z" fill="#34A853"/>
<path d="M105.964 20.7261L109.021 22.6435C108.035 24.0169 105.657 26.3832 101.548 26.3832C96.4522 26.3832 92.6467 22.6777 92.6467 17.9451C92.6467 12.9272 96.4846 9.50708 101.107 9.50708C105.762 9.50708 108.039 12.9919 108.783 14.875L109.191 15.8337L97.2004 20.5055C98.1184 22.1984 99.546 23.062 101.548 23.062C103.554 23.062 104.945 22.1337 105.964 20.7261ZM96.5533 17.6902L104.569 14.5593C104.128 13.5055 102.802 12.7712 101.24 12.7712C99.2386 12.7712 96.4522 14.4337 96.5533 17.6902Z" fill="#EA4335"/>
<path d="M14.2719 15.7537V12.1738H27.0958C27.2211 12.7977 27.2858 13.5358 27.2858 14.3347C27.2858 17.0206 26.5053 20.3418 23.9899 22.7081C21.5432 25.1048 18.4171 26.3831 14.2759 26.3831C6.60016 26.3831 0.145752 20.5015 0.145752 13.2809C0.145752 6.06023 6.60016 0.178711 14.2759 0.178711C18.5222 0.178711 21.5472 1.7461 23.82 3.78904L21.1347 6.31512C19.5049 4.87708 17.2969 3.7586 14.2719 3.7586C8.66671 3.7586 4.28288 8.00806 4.28288 13.2809C4.28288 18.5537 8.66671 22.8032 14.2719 22.8032C17.9075 22.8032 19.9781 21.4298 21.3046 20.182C22.3803 19.17 23.088 17.7244 23.3671 15.7499L14.2719 15.7537Z" fill="#4285F4"/>
</svg>
