<svg width="136" height="136" viewBox="0 0 136 136" fill="none" xmlns="http://www.w3.org/2000/svg">
<g filter="url(#filter0_d_2_32)">
<rect x="16.8765" y="16.3259" width="102.996" height="102.996" rx="51.4981" fill="#333E44"/>
<circle cx="68.3747" cy="67.824" r="30.8989" fill="#FF3366"/>
<path d="M58.3223 56.8945C60.4407 56.8945 62.1579 55.1588 62.1579 53.0178C62.1579 50.8767 60.4407 49.1411 58.3223 49.1411C56.204 49.1411 54.4868 50.8767 54.4868 53.0178C54.4868 55.1588 56.204 56.8945 58.3223 56.8945Z" fill="white"/>
<path d="M50.3087 60.2174L48.9731 65.1672H53.3567C52.4777 68.7785 50.6375 76.375 50.3087 77.8704C49.8978 79.7395 49.8292 85.07 55.3772 85.07C59.2495 85.07 61.7194 82.5416 63.097 80.4771L62.0552 84.6892H68.288L71.5414 71.3795C72.0037 69.165 73.0919 64.8902 77.0207 64.8902C81.6934 64.8902 79.9792 70.4828 79.1391 73.2235C79.1049 73.3352 79.0721 73.4421 79.0413 73.5436C78.4111 75.6205 77.7399 78.0434 77.7399 79.7049C77.7399 81.574 78.5961 85.07 83.3905 85.07C88.185 85.07 90.2283 80.2702 90.6507 77.8704L88.2192 76.8666C88.048 78.1473 86.5069 80.9163 85.0686 80.9163C83.0995 80.9163 84.0886 77.561 85.1442 73.9802C85.6124 72.3919 86.0937 70.7593 86.3357 69.3554C86.9476 65.8059 86.3357 59.7674 80.2399 59.7674C76.4538 59.7674 73.4809 63.1773 72.0666 65.5445L73.2537 60.2174H63.7675L62.4661 65.1672H66.8839C66.8839 65.1672 64.2623 75.9656 64.0928 76.3041C62.312 79.8606 59.6186 81.0545 57.6032 80.9163C55.9868 80.8056 56.1763 78.8395 56.4731 77.8704L60.8566 60.2174H50.3087Z" fill="white"/>
</g>
<defs>
<filter id="filter0_d_2_32" x="0.876465" y="0.325867" width="134.996" height="134.996" filterUnits="userSpaceOnUse" color-interpolation-filters="sRGB">
<feFlood flood-opacity="0" result="BackgroundImageFix"/>
<feColorMatrix in="SourceAlpha" type="matrix" values="0 0 0 0 0 0 0 0 0 0 0 0 0 0 0 0 0 0 127 0" result="hardAlpha"/>
<feOffset/>
<feGaussianBlur stdDeviation="8"/>
<feColorMatrix type="matrix" values="0 0 0 0 0 0 0 0 0 0 0 0 0 0 0 0 0 0 0.16 0"/>
<feBlend mode="normal" in2="BackgroundImageFix" result="effect1_dropShadow_2_32"/>
<feBlend mode="normal" in="SourceGraphic" in2="effect1_dropShadow_2_32" result="shape"/>
</filter>
</defs>
</svg>
