<svg width="100" height="100" viewBox="0 0 100 100" fill="none" xmlns="http://www.w3.org/2000/svg">
<circle cx="50" cy="50" r="50" fill="#FF3366"/>
<path d="M33.4263 31.6406C36.878 31.6406 39.6763 28.8424 39.6763 25.3906C39.6763 21.9388 36.878 19.1406 33.4263 19.1406C29.9745 19.1406 27.1763 21.9388 27.1763 25.3906C27.1763 28.8424 29.9745 31.6406 33.4263 31.6406Z" fill="white"/>
<path d="M20.3682 36.9978L18.1919 44.9777H25.3348C23.9025 50.7999 20.9039 63.0469 20.3682 65.4576C19.6986 68.471 19.5868 77.0647 28.6272 77.0647C34.937 77.0647 38.9617 72.9885 41.2066 69.6601L39.5089 76.4509H49.6651L54.9664 54.9931C55.7198 51.423 57.493 44.5312 63.895 44.5312C71.509 44.5312 68.7157 53.5475 67.3468 57.966C67.2911 58.146 67.2377 58.3183 67.1874 58.4821C66.1606 61.8304 65.0669 65.7366 65.0669 68.4152C65.0669 71.4286 66.462 77.0647 74.2745 77.0647C82.087 77.0647 85.4166 69.3266 86.1048 65.4576L82.1428 63.8393C81.8638 65.904 79.3526 70.3683 77.0089 70.3683C73.8003 70.3683 75.412 64.9589 77.1321 59.1859C77.895 56.6253 78.6792 53.9932 79.0736 51.7299C80.0707 46.0075 79.0736 36.2723 69.1406 36.2723C62.9713 36.2723 58.1269 41.7696 55.8223 45.586L57.7566 36.9978H42.299L40.1785 44.9777H47.3772C47.3772 44.9777 43.1053 62.3868 42.8292 62.9325C39.9274 68.6663 35.5385 70.591 32.2544 70.3683C29.6205 70.1897 29.9292 67.0201 30.4129 65.4576L37.5557 36.9978H20.3682Z" fill="white"/>
</svg>
