<svg width="120" height="120" viewBox="0 0 120 120" fill="none" xmlns="http://www.w3.org/2000/svg">
<rect width="120" height="120" rx="8" fill="#F5F5F5"/>
<path fill-rule="evenodd" clip-rule="evenodd" d="M60 110C87.6142 110 110 87.6142 110 60C110 32.3858 87.6142 10 60 10C32.3858 10 10 32.3858 10 60C10 87.6142 32.3858 110 60 110Z" fill="#1FB6FF"/>
<path fill-rule="evenodd" clip-rule="evenodd" d="M55.0167 49.0042C58.678 49.044 52.2322 68.0495 52.9242 76.3118C53.6221 84.6476 62.8456 82.2476 62.2602 77.4489C61.2642 69.2909 66.6984 43.728 72.2098 43.728C76.0767 43.728 67.9269 61.3506 69.5305 72.6353C70.5915 80.1015 80.2215 77.5115 79.2429 73.0846C76.0057 58.4339 86.0356 44.3537 84.9116 34.3778C84.42 30.0129 81.7949 27.8783 79.1692 27.8574C69.9759 27.7866 62.8744 46.6399 62.8744 46.6399C62.8744 46.6399 63.6139 35.9244 56.4689 35.531C45.5293 34.9281 34.6996 62.3064 35.0064 86.7526C35.1042 94.5515 44.8106 93.2231 44.3002 87.0052C43.351 75.4415 49.7981 48.9483 55.0167 49.0042Z" fill="white"/>
</svg>
