<svg width="135" height="136" viewBox="0 0 135 136" fill="none" xmlns="http://www.w3.org/2000/svg">
<g filter="url(#filter0_d_2_41)">
<rect x="16" y="16.3259" width="102.996" height="102.996" rx="51.4981" fill="#333E44"/>
<g clip-path="url(#clip0_2_41)">
<path d="M78.0858 45.7545L95.5716 60.4116L89.3144 73.183L78.6858 70.2688H69.6001L78.0858 45.7545Z" fill="url(#paint0_linear_2_41)"/>
<path d="M60.4286 55.2687L57 73.183L56.6571 79.3544L48.1714 83.0402L36 84.3259L39.6857 45.4973L61.6286 36.3259L75.1714 45.2402L60.4286 55.2687Z" fill="url(#paint1_linear_2_41)"/>
<path d="M60.4286 55.2688L62.0571 89.8974L56.5714 96.326L36 84.326L52.8857 59.1259L60.4286 55.2688Z" fill="url(#paint2_linear_2_41)"/>
<path d="M83.0571 52.6973H62.2285L80.6571 36.3259L83.0571 52.6973Z" fill="url(#paint3_linear_2_41)"/>
<path d="M95.9999 89.983L77.6571 96.2401L53.3142 89.383L60.4285 55.2687L63.2571 52.6973L78.0856 51.3259L76.7142 66.2401L88.5428 61.6973L95.9999 89.983Z" fill="url(#paint4_linear_2_41)"/>
<path d="M47.4856 47.8115H84.5142V84.8401H47.4856V47.8115Z" fill="black"/>
<path d="M51 77.8972H64.8857V80.2115H51V77.8972Z" fill="white"/>
<path d="M50.9141 52.6973H57.0855C60.7712 52.6973 62.9998 54.8401 62.9998 58.0115C62.9998 61.5258 60.2569 63.4973 56.8283 63.4973H54.2569V68.0401H50.9141L50.9141 52.6973ZM56.9141 60.4115C58.6283 60.4115 59.5712 59.2973 59.5712 58.0115C59.5712 56.4687 58.5426 55.6973 56.8283 55.6973H54.2569V60.4115H56.9141Z" fill="white"/>
<path d="M64.3713 60.4115C64.3713 56.0401 67.6285 52.4401 72.3428 52.4401C75.2571 52.4401 76.9713 53.3829 78.4285 54.8401L76.2856 57.3258C75.0856 56.2115 73.8856 55.6115 72.3428 55.6115C69.7713 55.6115 67.8856 57.7544 67.8856 60.4115C67.8856 63.0686 69.6856 65.1258 72.3428 65.1258C74.0571 65.1258 75.1713 64.4401 76.3713 63.3258L78.5142 65.4686C76.9713 67.1829 75.1713 68.2115 72.2571 68.2115C67.7142 68.2972 64.3713 64.7829 64.3713 60.4115Z" fill="white"/>
</g>
</g>
<defs>
<filter id="filter0_d_2_41" x="0" y="0.325867" width="134.996" height="134.996" filterUnits="userSpaceOnUse" color-interpolation-filters="sRGB">
<feFlood flood-opacity="0" result="BackgroundImageFix"/>
<feColorMatrix in="SourceAlpha" type="matrix" values="0 0 0 0 0 0 0 0 0 0 0 0 0 0 0 0 0 0 127 0" result="hardAlpha"/>
<feOffset/>
<feGaussianBlur stdDeviation="8"/>
<feColorMatrix type="matrix" values="0 0 0 0 0 0 0 0 0 0 0 0 0 0 0 0 0 0 0.16 0"/>
<feBlend mode="normal" in2="BackgroundImageFix" result="effect1_dropShadow_2_41"/>
<feBlend mode="normal" in="SourceGraphic" in2="effect1_dropShadow_2_41" result="shape"/>
</filter>
<linearGradient id="paint0_linear_2_41" x1="57.4269" y1="59.5082" x2="93.1338" y2="59.5082" gradientUnits="userSpaceOnUse">
<stop stop-color="#21D789"/>
<stop offset="1" stop-color="#07C3F2"/>
</linearGradient>
<linearGradient id="paint1_linear_2_41" x1="14.9494" y1="86.9667" x2="88.4743" y2="32.6907" gradientUnits="userSpaceOnUse">
<stop offset="0.011" stop-color="#FCF84A"/>
<stop offset="0.112" stop-color="#A7EB62"/>
<stop offset="0.206" stop-color="#5FE077"/>
<stop offset="0.273" stop-color="#32DA84"/>
<stop offset="0.306" stop-color="#21D789"/>
<stop offset="0.577" stop-color="#21D789"/>
<stop offset="0.597" stop-color="#21D789"/>
<stop offset="0.686" stop-color="#20D68C"/>
<stop offset="0.763" stop-color="#1ED497"/>
<stop offset="0.835" stop-color="#19D1A9"/>
<stop offset="0.904" stop-color="#13CCC2"/>
<stop offset="0.971" stop-color="#0BC6E1"/>
<stop offset="1" stop-color="#07C3F2"/>
</linearGradient>
<linearGradient id="paint2_linear_2_41" x1="43.9971" y1="102.887" x2="56.2603" y2="64.406" gradientUnits="userSpaceOnUse">
<stop stop-color="#21D789"/>
<stop offset="0.164" stop-color="#24D788"/>
<stop offset="0.305" stop-color="#2FD886"/>
<stop offset="0.437" stop-color="#41DA82"/>
<stop offset="0.564" stop-color="#5ADC7D"/>
<stop offset="0.688" stop-color="#7AE077"/>
<stop offset="0.809" stop-color="#A1E36E"/>
<stop offset="0.925" stop-color="#CFE865"/>
<stop offset="1" stop-color="#F1EB5E"/>
</linearGradient>
<linearGradient id="paint3_linear_2_41" x1="60.2357" y1="69.4313" x2="86.9219" y2="33.5521" gradientUnits="userSpaceOnUse">
<stop stop-color="#21D789"/>
<stop offset="0.061" stop-color="#24D788"/>
<stop offset="0.113" stop-color="#2FD886"/>
<stop offset="0.162" stop-color="#41DA82"/>
<stop offset="0.209" stop-color="#5ADD7D"/>
<stop offset="0.255" stop-color="#79E077"/>
<stop offset="0.258" stop-color="#7CE076"/>
<stop offset="0.499" stop-color="#8CE173"/>
<stop offset="0.925" stop-color="#B2E56B"/>
</linearGradient>
<linearGradient id="paint4_linear_2_41" x1="101.048" y1="73.9973" x2="47.2782" y2="73.4993" gradientUnits="userSpaceOnUse">
<stop offset="0.387" stop-color="#FCF84A"/>
<stop offset="0.536" stop-color="#ECF451"/>
<stop offset="0.826" stop-color="#C2E964"/>
<stop offset="0.925" stop-color="#B2E56B"/>
</linearGradient>
<clipPath id="clip0_2_41">
<rect width="60" height="60" fill="white" transform="translate(36 36.3259)"/>
</clipPath>
</defs>
</svg>
