<svg width="100" height="100" viewBox="0 0 100 100" fill="none" xmlns="http://www.w3.org/2000/svg">
<path fill-rule="evenodd" clip-rule="evenodd" d="M21.8181 3.2924L49.9999 0L78.1816 3.2924L99.9998 35.6583L49.9999 99.9996L0 35.6583L21.8181 3.2924Z" fill="#FDB300"/>
<path d="M20.2522 35.6584L49.9996 100L0 35.6584H20.2522ZM79.7478 35.6584L50.0004 100L100 35.6584" fill="#EA6C00"/>
<path fill-rule="evenodd" clip-rule="evenodd" d="M20.2515 35.6584H79.7463L49.9989 100" fill="#FDAD00"/>
<path d="M49.9989 0L21.8171 3.29185L20.2515 35.658L49.9989 0ZM49.9993 0L78.1811 3.29185L79.7467 35.658" fill="#FDD231"/>
<path d="M100 35.6579L78.1821 3.29175L79.7478 35.6579H100ZM0 35.6579L21.8179 3.29175L20.2522 35.6579" fill="#FDAD00"/>
<path fill-rule="evenodd" clip-rule="evenodd" d="M49.9989 0L20.2515 35.658H79.7463" fill="#FEEEB7"/>
</svg>
