<svg width="135" height="136" viewBox="0 0 135 136" fill="none" xmlns="http://www.w3.org/2000/svg">
<g filter="url(#filter0_d_2_62)">
<rect x="16" y="16.7378" width="102.996" height="102.996" rx="51.4981" fill="#333E44"/>
<path d="M80.3757 44.5408C80.3757 42.9242 78.5657 42.9242 77.7612 43.1263C78.8875 42.2372 80.2081 42.4527 80.6774 42.7222L91.5533 48.055C92.5896 48.5631 93.247 49.6204 93.247 50.7791V85.8614C93.247 87.0355 92.5721 88.104 91.5148 88.604L81.2807 93.443C80.5768 93.7461 79.0484 94.4938 77.7612 93.443C79.3701 93.7461 80.2416 92.6011 80.3757 91.8264V44.5408Z" fill="url(#paint0_linear_2_62)"/>
<path d="M77.8919 43.0972C78.7457 42.9285 80.3759 43.0067 80.3759 44.5409V56.6166L47.402 81.5615C46.8257 81.9975 46.0145 81.9252 45.5236 81.394L42.1252 77.7166C41.5928 77.1405 41.6301 76.2388 42.2081 75.709L77.7614 43.1263L77.8919 43.0972Z" fill="url(#paint1_linear_2_62)"/>
<path d="M80.3759 79.9527L47.402 55.0078C46.8257 54.5718 46.0145 54.6441 45.5236 55.1753L42.1252 58.8526C41.5928 59.4287 41.6301 60.3305 42.2081 60.8603L77.7614 93.443C79.3703 93.7461 80.2418 92.601 80.3759 91.8263V79.9527Z" fill="url(#paint2_linear_2_62)"/>
</g>
<defs>
<filter id="filter0_d_2_62" x="0" y="0.737793" width="134.996" height="134.996" filterUnits="userSpaceOnUse" color-interpolation-filters="sRGB">
<feFlood flood-opacity="0" result="BackgroundImageFix"/>
<feColorMatrix in="SourceAlpha" type="matrix" values="0 0 0 0 0 0 0 0 0 0 0 0 0 0 0 0 0 0 127 0" result="hardAlpha"/>
<feOffset/>
<feGaussianBlur stdDeviation="8"/>
<feColorMatrix type="matrix" values="0 0 0 0 0 0 0 0 0 0 0 0 0 0 0 0 0 0 0.16 0"/>
<feBlend mode="normal" in2="BackgroundImageFix" result="effect1_dropShadow_2_62"/>
<feBlend mode="normal" in="SourceGraphic" in2="effect1_dropShadow_2_62" result="shape"/>
</filter>
<linearGradient id="paint0_linear_2_62" x1="85.5041" y1="42.4868" x2="85.5041" y2="93.9849" gradientUnits="userSpaceOnUse">
<stop stop-color="#32B5F1"/>
<stop offset="1" stop-color="#2B9FED"/>
</linearGradient>
<linearGradient id="paint1_linear_2_62" x1="80.3759" y1="48.9865" x2="43.6282" y2="79.8323" gradientUnits="userSpaceOnUse">
<stop stop-color="#0F6FB3"/>
<stop offset="0.270551" stop-color="#1279B7"/>
<stop offset="0.421376" stop-color="#1176B5"/>
<stop offset="0.618197" stop-color="#0E69AC"/>
<stop offset="0.855344" stop-color="#0F70AF"/>
<stop offset="1" stop-color="#0F6DAD"/>
</linearGradient>
<linearGradient id="paint2_linear_2_62" x1="43.8737" y1="57.1705" x2="80.5182" y2="87.512" gradientUnits="userSpaceOnUse">
<stop stop-color="#1791D2"/>
<stop offset="1" stop-color="#1173C5"/>
</linearGradient>
</defs>
</svg>
