<svg width="136" height="135" viewBox="0 0 136 135" fill="none" xmlns="http://www.w3.org/2000/svg">
<g filter="url(#filter0_d_2_36)">
<rect x="16.543" y="16.0038" width="102.996" height="102.996" rx="51.4981" fill="#333E44"/>
<rect x="41.543" y="41.0038" width="50" height="50" fill="#FF26BE"/>
<rect x="43.3289" y="42.7896" width="46.4286" height="46.4286" fill="#2E001F"/>
<path d="M69.095 80.0208L62.8298 67.4968L68.8133 54.9592C68.926 54.7696 68.8584 54.6274 68.678 54.6274H65.0483C64.8309 54.6274 64.7383 54.7743 64.6425 54.9355L60.4942 64.4157L56.2332 54.9118C56.143 54.6985 56.0528 54.6511 55.8274 54.6511H51.9496C51.8144 54.6511 51.6791 54.7933 51.8144 54.9829L57.7888 67.4968L51.555 80.0445C51.4422 80.1867 51.4648 80.3763 51.6902 80.3763H55.4102C55.5905 80.3763 55.7032 80.3052 55.816 80.1156L60.2011 70.2935L64.5634 80.0919C64.6761 80.3289 64.7889 80.3763 65.0369 80.3763H68.9597C69.1401 80.3763 69.2077 80.2104 69.095 80.0208Z" fill="#FF26BE"/>
<path fill-rule="evenodd" clip-rule="evenodd" d="M79.2966 61.1208C73.7506 61.1208 70.2561 65.4343 70.2561 70.9565C70.2561 77.4031 73.7069 80.4001 78.5991 80.3764C80.4929 80.3764 82.5206 80.1286 84.4144 79.1806C84.5496 79.1095 84.5947 79.0621 84.5947 78.9199C84.482 78.043 84.482 77.2371 84.482 76.5972V54.8402C84.482 54.7217 84.4369 54.6506 84.2565 54.6506H80.6944C80.5817 54.6506 80.469 54.7454 80.469 54.8876V61.1682C80.0181 61.1208 79.7701 61.1208 79.2966 61.1208ZM79.1614 64.6522C79.7025 64.6522 80.1534 64.747 80.469 64.8892V76.6209C80.0406 76.8105 79.4545 76.8816 78.9134 76.8816C76.3658 76.8816 74.3367 75.1278 74.3367 70.7669C74.3367 66.9511 76.3207 64.6522 79.1614 64.6522Z" fill="#FF26BE"/>
</g>
<defs>
<filter id="filter0_d_2_36" x="0.542969" y="0.00378418" width="134.996" height="134.996" filterUnits="userSpaceOnUse" color-interpolation-filters="sRGB">
<feFlood flood-opacity="0" result="BackgroundImageFix"/>
<feColorMatrix in="SourceAlpha" type="matrix" values="0 0 0 0 0 0 0 0 0 0 0 0 0 0 0 0 0 0 127 0" result="hardAlpha"/>
<feOffset/>
<feGaussianBlur stdDeviation="8"/>
<feColorMatrix type="matrix" values="0 0 0 0 0 0 0 0 0 0 0 0 0 0 0 0 0 0 0.16 0"/>
<feBlend mode="normal" in2="BackgroundImageFix" result="effect1_dropShadow_2_36"/>
<feBlend mode="normal" in="SourceGraphic" in2="effect1_dropShadow_2_36" result="shape"/>
</filter>
</defs>
</svg>
