<svg width="100" height="100" viewBox="0 0 100 100" fill="none" xmlns="http://www.w3.org/2000/svg">
<rect width="100" height="100" fill="#FF26BE"/>
<rect x="3.57129" y="3.57141" width="92.8571" height="92.8571" fill="#2E001F"/>
<path d="M52.296 74.0457L39.0243 49.8563L51.6993 25.6409C51.9381 25.2747 51.7949 25 51.4128 25H43.7237C43.2634 25 43.0671 25.2837 42.8641 25.5951L34.0766 43.9054L25.0503 25.5493C24.8593 25.1373 24.6683 25.0458 24.1907 25.0458H15.9763C15.6898 25.0458 15.4032 25.3204 15.6898 25.6866L28.3456 49.8563L15.1402 74.0914C14.9014 74.3661 14.9492 74.7323 15.4268 74.7323H23.3069C23.6889 74.7323 23.9277 74.595 24.1665 74.2288L33.4558 55.2579L42.6966 74.183C42.9354 74.6407 43.1742 74.7323 43.6996 74.7323H52.0095C52.3915 74.7323 52.5348 74.4119 52.296 74.0457Z" fill="#FF26BE"/>
<path fill-rule="evenodd" clip-rule="evenodd" d="M73.9067 37.5415C62.1582 37.5415 54.7557 45.8727 54.7557 56.5385C54.7557 68.9896 62.0656 74.7781 72.4292 74.7324C76.4408 74.7324 80.7361 74.2538 84.7478 72.4228C85.0344 72.2855 85.1299 72.1939 85.1299 71.9193C84.8911 70.2255 84.8911 68.6692 84.8911 67.4332V25.4109C84.8911 25.182 84.7956 25.0447 84.4135 25.0447H76.8677C76.6289 25.0447 76.3902 25.2278 76.3902 25.5024V37.6331C75.435 37.5415 74.9096 37.5415 73.9067 37.5415ZM73.6202 44.3621C74.7664 44.3621 75.7215 44.5452 76.3902 44.8199V67.479C75.4827 67.8452 74.241 67.9825 73.0948 67.9825C67.6982 67.9825 63.3999 64.5951 63.3999 56.1723C63.3999 48.8024 67.6027 44.3621 73.6202 44.3621Z" fill="#FF26BE"/>
</svg>
